Coordinates
version=1
nRows=14
nColumns=36
inDegrees=yes

Units are S.I. units (second, meters, Newtons, ...)
If the header above contains a line with 'inDegrees', this indicates whether rotational values are in degrees (yes) or radians (no).

endheader
time	pelvis_tilt	pelvis_list	pelvis_rotation	pelvis_tx	pelvis_ty	pelvis_tz	hip_flexion_r	hip_adduction_r	hip_rotation_r	knee_angle_r	knee_angle_r_beta	ankle_angle_r	subtalar_angle_r	mtp_angle_r	hip_flexion_l	hip_adduction_l	hip_rotation_l	knee_angle_l	knee_angle_l_beta	ankle_angle_l	subtalar_angle_l	mtp_angle_l	lumbar_extension	lumbar_bending	lumbar_rotation	arm_flex_r	arm_add_r	arm_rot_r	elbow_flex_r	pro_sup_r	arm_flex_l	arm_add_l	arm_rot_l	elbow_flex_l	pro_sup_l
     14.80000000	      7.47516760	     -0.17572201	   -169.05526436	      0.63997126	      1.03852310	      0.87147358	     31.85078862	     -6.90314994	      4.89860333	     13.73735531	      0.23976208	    -11.09399227	     15.56805949	     -7.49999987	     16.55109475	      2.82440967	     -0.61580714	     28.89605001	      0.50433121	     12.60332100	     -0.23744034	     -7.49999987	    -13.43623462	      3.68222227	     -5.83819167	      5.68525067	     -8.73519319	    -14.52909600	     15.12111477	     78.50608509	     26.11431051	     -8.43577912	      8.92167642	     25.65182860	     84.35510262
     14.81666670	      7.79759462	      0.13352068	   -169.22599081	      0.64045891	      1.03008966	      0.86996059	     32.35093081	     -6.30391144	      5.49199378	     13.24042663	      0.23108904	    -10.47878814	     16.82457761	     -7.49999987	     16.40710719	      2.30905725	     -0.43821274	     29.91210319	      0.52206469	     13.86489755	      0.21699823	     -7.49999987	    -13.15905441	      4.06894399	     -5.61024590	      5.14270731	     -9.00679588	    -15.32267220	     15.09958586	     79.07094794	     26.31723899	     -8.52658530	      9.45598081	     25.50976309	     85.17703061
     14.83333330	      8.18689900	      0.52630597	   -169.42153961	      0.64138438	      1.02314865	      0.86670319	     33.30485542	     -5.55830690	      5.50137001	     13.28595375	      0.23188364	     -9.69967915	     17.49733382	     -7.49999987	     16.60890204	      1.69400890	     -0.20004667	     31.40858924	      0.54818330	     15.30141884	      0.38538039	     -7.49999987	    -12.92881559	      4.50911171	     -5.38585598	      4.84061798	     -9.31255348	    -15.61497955	     15.00192138	     79.66136388	     26.50906878	     -8.71542173	      9.91378219	     25.59585146	     85.83588367
     14.85000000	      8.31891785	      0.93492555	   -169.70606725	      0.63973561	      1.02062311	      0.86222314	     33.92066597	     -4.60716645	      5.21270503	     13.26471275	      0.23151291	     -8.14004335	     17.59359233	     -7.49999987	     16.47834778	      0.88205991	     -0.12322223	     33.06017397	      0.57700889	     16.88007023	      0.38882897	     -7.49999987	    -13.01046722	      4.96124189	     -5.07927830	      4.68842607	     -9.49575199	    -15.82609140	     14.77989156	     79.64757111	     26.56440806	     -8.90525344	      9.89014952	     25.76005859	     85.86467174
     14.86666670	      8.19067662	      1.36276360	   -170.29670240	      0.63404854	      1.02031701	      0.85613293	     34.08557612	     -3.31022712	      4.92538886	     13.20801701	      0.23052338	     -5.65706723	     17.26072557	     -7.49999987	     15.76621400	     -0.13861326	     -0.21933167	     34.54587191	      0.60293921	     18.31078393	     -0.01363148	     -7.49999987	    -13.05622132	      5.30949151	     -4.78284825	      4.56896971	     -9.56748913	    -15.89249640	     14.64638637	     79.64623757	     26.30961222	     -9.29353644	      9.88004521	     25.72938497	     85.86504189
     14.88333330	      7.22029411	      2.11817428	   -171.01872426	      0.62542035	      1.02030985	      0.84875267	     32.95349606	     -1.46044339	      4.05158122	     13.01890117	      0.22722269	     -3.51327075	     17.07453830	     -7.49999987	     14.01301025	     -1.77252551	     -0.45079059	     35.99134166	      0.62816741	     19.70636220	      0.20424916	     -7.49999987	    -13.55215549	      5.99796928	     -4.36521481	      4.47766763	     -9.53577220	    -15.79241379	     14.11642789	     79.79311432	     25.82269062	     -9.68598780	      9.80744156	     25.46191175	     85.90687195
     14.90000000	      5.73798234	      2.97254848	   -171.77649200	      0.61718983	      1.02038613	      0.84268585	     31.09853855	      0.55709163	      3.02707635	     13.13532776	      0.22925472	     -2.57858536	     16.41436933	     -7.49999987	     11.79651821	     -3.45321426	     -0.45679812	     37.54676285	      0.65531464	     20.00206291	     -0.05712101	     -7.49999987	    -14.26725514	      6.82695155	     -3.94774033	      4.35808150	     -9.44179064	    -15.44247509	     13.63580131	     80.01637559	     25.12241103	    -10.02339648	      9.62775411	     24.95451774	     85.88134082
     14.91666670	      4.64349675	      3.86392099	   -172.49970308	      0.61225347	      1.01969644	      0.83981774	     29.80495911	      2.37958998	      1.90041896	     13.90175394	      0.24263138	     -2.22612660	     15.38255242	     -7.49999987	     10.53227196	     -4.86051635	     -0.09280609	     39.91469598	      0.69664286	     19.25703895	     -1.05104888	     -7.49999987	    -14.55591968	      7.68654394	     -3.48202683	      4.13153150	     -9.39821177	    -15.18312769	     13.41185622	     80.16507769	     24.31475739	    -10.29323671	      9.52897469	     24.57332742	     85.87698939
     14.93333330	      3.18607250	      4.73751464	   -173.15691365	      0.61053960	      1.02001874	      0.83938441	     28.29486470	      3.99969009	      0.57686615	     15.07771990	      0.26315586	     -2.85017570	     13.43363912	     -7.49999987	      9.49024367	     -6.07835658	      0.47388783	     43.20387884	      0.75404994	     17.87351722	     -2.34462977	     -7.49999987	    -15.61706420	      8.68564101	     -2.91673790	      4.26251143	     -9.58339023	    -13.99605675	     13.32768149	     80.23544640	     23.77169803	    -10.45121779	      9.50153381	     24.29526410	     85.02167420
     14.95000000	      2.28083562	      5.60640162	   -173.85208457	      0.60954371	      1.02009846	      0.83952011	     27.55628456	      5.26963574	     -1.23492500	     16.69703700	      0.29141827	     -3.41628676	     11.57714170	     -7.49999987	      9.42130369	     -7.05745816	      1.13617866	     47.17914821	      0.82343147	     16.04228518	     -4.05245252	     -7.49999987	    -16.23076274	      9.70991774	     -2.32757106	      4.53073778	     -9.92778826	    -12.71018838	     13.52318391	     80.75507594	     22.92475654	    -10.37902503	      8.91170436	     24.52811709	     84.95396057
     14.96666670	      1.54786832	      6.29737635	   -174.77422131	      0.60746072	      1.01928677	      0.83853681	     27.09112983	      6.22711344	     -2.98952384	     18.73209029	      0.32693665	     -3.47892960	      9.68395421	     -7.49999987	      9.48393542	     -7.86970824	      1.46247847	     51.25063478	      0.89449232	     13.77530121	     -5.74355306	     -7.49999987	    -16.71126681	     10.40243994	     -1.38882072	      4.96141533	    -10.19404860	    -12.64992226	     13.78070460	     80.78719827	     22.11143580	    -10.04974488	      8.74385567	     24.43427790	     84.91119300
     14.98333330	      1.01331596	      7.12115555	   -175.67567959	      0.60393776	      1.01658247	      0.83596628	     26.84656490	      7.15341284	     -4.54033855	     21.03528798	      0.36713503	     -2.94311411	      7.65688591	     -7.49999987	      9.96022056	     -8.94914804	      1.68238926	     55.65230223	      0.97131591	     11.14510137	     -7.14813999	     -7.49999987	    -17.00155401	     11.18433900	     -0.43038671	      5.51478228	    -10.50949448	    -12.43303712	     14.26208712	     80.88465204	     21.11586944	     -9.53425930	      8.43037111	     24.25031353	     84.81261548
     15.00000000	      0.80059200	      7.98649946	   -176.48633111	      0.59865962	      1.01386662	      0.83143172	     26.86435341	      8.04654137	     -5.68415611	     23.39811052	      0.40837407	     -1.52237543	      5.97596987	     -7.49999987	     11.16498943	    -10.23180659	      1.92902710	     60.32322267	      1.05283885	      7.96834743	     -8.21230970	     -7.49999987	    -16.79198571	     11.87764337	      0.42387760	      6.04640189	    -10.82750374	    -11.81497225	     14.83241435	     81.15158421	     19.99965917	     -8.88006705	      7.57438205	     23.96201319	     84.56521868
     15.01666670	      0.04056605	      8.72288836	   -177.17956058	      0.59141660	      1.01340840	      0.82531659	     25.98606775	      9.01080876	     -6.26381388	     25.25825786	      0.44083976	      0.76991821	      4.84739678	     -7.49999987	     12.07217602	    -11.58294614	      2.18885648	     64.81208839	      1.13118434	      4.54270293	     -8.66804156	     -7.49999987	    -17.10597477	     12.32390665	      1.32642431	      6.82025843	    -10.93953196	    -11.62805726	     15.06561553	     81.19976956	     18.92540297	     -8.43815394	      7.42405451	     23.77872515	     84.47811474
